<svg id="icon-download" width="80" height="80" viewBox="0 0 80 80" fill="none" xmlns="http://www.w3.org/2000/svg">
<path d="M26.6665 73.3341H53.3332C62.7612 73.3341 67.4752 73.3341 70.4042 70.4051C73.3332 67.4764 73.3332 62.7621 73.3332 53.3341V50.0008C73.3332 40.5728 73.3332 35.8588 70.4042 32.9298C67.8428 30.3685 63.9165 30.047 56.6665 30.0066M23.3332 30.0066C16.0831 30.047 12.1567 30.3685 9.59544 32.9297C6.6665 35.8588 6.6665 40.5728 6.6665 50.0008V53.3341C6.6665 62.7621 6.6665 67.4764 9.59544 70.4051C10.5948 71.4044 11.8019 72.0628 13.3332 72.4968" stroke-width="5" stroke-linecap="round"/>
<path d="M40 6.66675V50.0001M40 50.0001L30 38.3334M40 50.0001L50 38.3334" stroke-width="5" stroke-linecap="round" stroke-linejoin="round"/>
</svg>
