<svg id="icon-star" width="80" height="80" viewBox="0 0 80 80" fill="none" xmlns="http://www.w3.org/2000/svg">
<path d="M30.7721 28.7253C24.213 30.2094 20.9334 30.9514 20.1531 33.4606C19.3729 35.9696 21.6087 38.5843 26.0803 43.8129L27.2371 45.1659C28.5078 46.6516 29.1431 47.3946 29.429 48.3139C29.7148 49.2329 29.6187 50.2243 29.4266 52.2066L29.2517 54.0116C28.5757 60.9883 28.2377 64.4766 30.2804 66.0273C32.3231 67.5779 35.3937 66.1639 41.535 63.3363L43.124 62.6049C44.869 61.8013 45.7417 61.3996 46.6667 61.3996C47.5917 61.3996 48.4643 61.8013 50.2093 62.6049L51.7983 63.3363C57.9397 66.1639 61.0103 67.5779 63.053 66.0273C65.0957 64.4766 64.7577 60.9883 64.0817 54.0116M67.253 43.8129C71.7247 38.5843 73.9603 35.9696 73.1803 33.4606C72.4 30.9514 69.1203 30.2094 62.5613 28.7253L60.8643 28.3414C59.0003 27.9197 58.0683 27.7088 57.32 27.1408C56.572 26.5727 56.092 25.7118 55.132 23.9899L54.2583 22.4223C50.8803 16.3629 49.1917 13.3333 46.6667 13.3333C44.1417 13.3333 42.453 16.3629 39.075 22.4223" stroke-width="5" stroke-linecap="round"/>
<path d="M6.96289 53.3334C10.6815 50.4034 15.6213 49.3237 20.2962 50.419" stroke-width="5" stroke-linecap="round"/>
<path d="M6.96289 34.9999C10.2962 33.3333 11.2621 33.5349 13.6296 33.3333" stroke-width="5" stroke-linecap="round"/>
<path d="M6.6665 18.6955L7.36037 18.2891C14.7126 13.9835 22.5009 12.8228 29.8433 14.9386L30.5362 15.1383" stroke-width="5" stroke-linecap="round"/>
</svg>
