<svg id="icon-like" width="80" height="80" viewBox="0 0 80 80" fill="none" xmlns="http://www.w3.org/2000/svg">
<path d="M35.8331 8.16641C38.1331 6.19974 41.8998 6.19974 44.2331 8.16641L49.4998 12.7001C50.4998 13.5667 52.3664 14.2666 53.6998 14.2666H59.3664C62.8998 14.2666 65.7998 17.1664 65.7998 20.6998V26.3667C65.7998 27.6667 66.4998 29.5667 67.3664 30.5667L71.8998 35.8332C73.8664 38.1332 73.8664 41.8999 71.8998 44.2332L67.3664 49.4999C66.4998 50.4999 65.7998 52.3666 65.7998 53.6999V59.3669C65.7998 62.9002 62.8998 65.7999 59.3664 65.7999H53.6998C52.3998 65.7999 50.4998 66.4999 49.4998 67.3666L44.2331 71.8996C41.9331 73.8662 38.1664 73.8662 35.8331 71.8996L30.5665 67.3666C29.5665 66.4999 27.6998 65.7999 26.3665 65.7999H20.5998C17.0664 65.7999 14.1664 62.9002 14.1664 59.3669V53.6666C14.1664 52.3666 13.4665 50.4999 12.6331 49.4999L8.13311 44.1999C6.19977 41.8999 6.19977 38.1666 8.13311 35.8666L12.6331 30.5667C13.4665 29.5667 14.1664 27.7 14.1664 26.4V20.6998C14.1664 17.1664 17.0664 14.2666 20.5998 14.2666H26.3665C27.6665 14.2666 29.5665 13.5667 30.5665 12.7001L35.8331 8.16641Z" stroke-width="5" stroke-linecap="round" stroke-linejoin="round"/>
<path d="M32.9666 49.3999L37.7999 53.1332C38.4332 53.7666 39.8332 54.0666 40.7666 54.0666H46.6666C48.5332 54.0666 50.5666 52.6666 51.0332 50.7999L54.7666 39.3999C55.5332 37.2332 54.1332 35.3332 51.7999 35.3332H45.5666C44.6332 35.3332 43.8666 34.5669 43.9999 33.4669L44.7666 28.4668C45.0666 27.0668 44.1332 25.5001 42.7332 25.0334C41.4999 24.5667 39.9332 25.1999 39.2999 26.1332L32.8999 35.6332" stroke-width="5" stroke-miterlimit="10"/>
<path d="M25 49.3996V34.1332C25 31.9332 25.9333 31.1665 28.1333 31.1665H29.7C31.8667 31.1665 32.8334 31.9332 32.8334 34.1332V49.3996C32.8334 51.5662 31.9 52.3666 29.7 52.3666H28.1333C25.9333 52.3666 25 51.5996 25 49.3996Z" stroke-width="5" stroke-linecap="round" stroke-linejoin="round"/>
</svg>
